<?xml version="1.0" encoding="UTF-8" standalone="no"?>
<!DOCTYPE svg PUBLIC "-//W3C//DTD SVG 1.1//EN" "http://www.w3.org/Graphics/SVG/1.1/DTD/svg11.dtd">
<svg width="100%" height="100%" viewBox="0 0 56 56" version="1.1" xmlns="http://www.w3.org/2000/svg" xmlns:xlink="http://www.w3.org/1999/xlink" xml:space="preserve" xmlns:serif="http://www.serif.com/" style="fill-rule:evenodd;clip-rule:evenodd;stroke-linejoin:round;stroke-miterlimit:2;">
    <g transform="matrix(0.1875,0,0,0.1875,-146.394,-98.3944)">
        <path d="M970.667,714.667L885.333,714.667L885.333,629.333L970.667,629.333L970.667,714.667ZM960,640L896,640L896,704L960,704L960,640Z"/>
        <g transform="matrix(2,0,0,2,-928,-672)">
            <path d="M965.333,709.333L890.667,709.333L890.667,634.667L965.333,634.667L965.333,709.333ZM960,640L896,640L896,704L960,704L960,640Z"/>
        </g>
        <g transform="matrix(3,0,0,3,-1856,-1344)">
            <path d="M963.556,707.556L892.444,707.556L892.444,636.444L963.556,636.444L963.556,707.556ZM960,640L896,640L896,704L960,704L960,640Z"/>
        </g>
        <g transform="matrix(4,0,0,4,-2784,-2016)">
            <path d="M962.667,706.667L893.333,706.667L893.333,637.333L962.667,637.333L962.667,706.667ZM960,640L896,640L896,704L960,704L960,640Z"/>
        </g>
    </g>
</svg>
